/* XPM */
static char *ee449884010941f9d21507e0959f10bdPCrfMU25SjuRbD63[] = {
/* columns rows colors chars-per-pixel */
"32 32 3 1 ",
"  c #B1D354",
". c #8ECD65",
"X c #CBE36F",
/* pixels */
"                                ",
"                                ",
"                                ",
"                                ",
"                                ",
"                                ",
"                                ",
"                                ",
"                                ",
"                                ",
"        XXXX        XXXX        ",
"        XXXX        XXXX        ",
"        ..XXXX    XXXX          ",
"        ..XXXX    XXXX          ",
"          ..XX  XXXXXX..        ",
"          ..XX  XXXXXX..        ",
"                  XX....        ",
"                  XX....        ",
"                      XXXX      ",
"                      XXXX      ",
"                    XXXX  ..    ",
"                    XXXX  ..    ",
"                      XX....    ",
"                      XX....    ",
"                                ",
"                                ",
"                                ",
"                                ",
"                                ",
"                                ",
"                                ",
"                                "
};
