/* XPM */
static char *_8ab907359384a9d8e5dd3dc78a3e65bsov3b8udbLWhPlZq[] = {
/* columns rows colors chars-per-pixel */
"32 32 7 1 ",
"  c gray9",
". c #64534B",
"X c #886D58",
"o c #B1D354",
"O c #69CA97",
"+ c #7FE19B",
"@ c #B1E898",
/* pixels */
"oooooooooooooo    oooooooooooooo",
"oooooooooooooo    oooooooooooooo",
"oooooooooooo  @@@@  oooooooooooo",
"oooooooooooo  @@@@  oooooooooooo",
"oooooooooo  @@@@@@@@  oooooooooo",
"oooooooooo  @@@@@@@@  oooooooooo",
"oooooooooo  @@@@@@@@  oooooooooo",
"oooooooooo  @@@@@@@@  oooooooooo",
"oooooooo  @@@@@@@@@@@@  oooooooo",
"oooooooo  @@@@@@@@@@@@  oooooooo",
"oooooo  @@@@@@@@@@@@@@@@  oooooo",
"oooooo  @@@@@@@@@@@@@@@@  oooooo",
"oooooooo  @@++@@@@++@@  oooooooo",
"oooooooo  @@++@@@@++@@  oooooooo",
"oooooo  ++++++++++++++++  oooooo",
"oooooo  ++++++++++++++++  oooooo",
"oooo  ++++++++++++++++++++  oooo",
"oooo  ++++++++++++++++++++  oooo",
"oo  OOOO++OO++++++OO++++OOOO  oo",
"oo  OOOO++OO++++++OO++++OOOO  oo",
"oo  OOOOOOOOOOOOOOOOOOOOOOOO  oo",
"oo  OOOOOOOOOOOOOOOOOOOOOOOO  oo",
"oooo  OO..OOOO..OOOOOO..OO  oooo",
"oooo  OO..OOOO..OOOOOO..OO  oooo",
"oooooo      ........      oooooo",
"oooooo      ........      oooooo",
"oooooooooo  XXXXXXXX  oooooooooo",
"oooooooooo  XXXXXXXX  oooooooooo",
"oooooooooo  XXXXXXXX  oooooooooo",
"oooooooooo  XXXXXXXX  oooooooooo",
"oooooooooooooooooooooooooooooooo",
"oooooooooooooooooooooooooooooooo"
};
