/* XPM */
static char *result[] = {
/* columns rows colors chars-per-pixel */
"32 32 8 1 ",
"  c gray9",
". c #64534B",
"X c #886D58",
"o c #C3D657",
"O c #CBE36F",
"+ c #69CA97",
"@ c #7FE19B",
"# c #B1E898",
/* pixels */
"oooooooooooooo    oooooooooooooo",
"oooooooooooooo    oooooooooooooo",
"oooooooooooo  ####  oooooooooooo",
"oooooooooooo  ####  oooooooooooo",
"oooooooooo  ########  oooooooooo",
"oooooooooo  ########  oooooooooo",
"oooooooooo  ########  oooooooooo",
"oooooooooo  ########  oooooooooo",
"oooooooo  ############  oooooooo",
"oooooooo  ############  oooooooo",
"ooooOO  ################  oooooo",
"ooooOO  ################  oooooo",
"ooooooOO  ##@@####@@##  oooooooo",
"ooooooOO  ##@@####@@##  oooooooo",
"oooooo  @@@@@@@@@@@@@@@@  oooooo",
"oooooo  @@@@@@@@@@@@@@@@  oooooo",
"oooo  @@@@@@@@@@@@@@@@@@@@  oooo",
"oooo  @@@@@@@@@@@@@@@@@@@@  oooo",
"oo  ++++@@++@@@@@@++@@@@++++  oo",
"oo  ++++@@++@@@@@@++@@@@++++  oo",
"oo  ++++++++++++++++++++++++  oo",
"oo  ++++++++++++++++++++++++  oo",
"oooo  ++..++++..++++++..++  oooo",
"oooo  ++..++++..++++++..++  oooo",
"oooooo      ........      oooooo",
"oooooo      ........      oooooo",
"oooooooooo  XXXXXXXX  oooooooooo",
"oooooooooo  XXXXXXXX  oooooooooo",
"oooooooooo  XXXXXXXX  oooooooooo",
"oooooooooo  XXXXXXXX  oooooooooo",
"oooooooooooooooooooooooooooooooo",
"oooooooooooooooooooooooooooooooo"
};
