/* XPM */
static char * Me_xpm[] = {
"32 32 10 1",
" 	c #B1D354",
".	c #171717",
"+	c #F4F4F4",
"@	c #A953A1",
"#	c #B1B1B1",
"$	c #953788",
"%	c #D3A061",
"&	c #818181",
"*	c #99703B",
"=	c #515151",
"                                ",
"                                ",
"      ..      ....              ",
"      ..      ....              ",
"    ..++..  ..@@@@..            ",
"    ..++..  ..@@@@..            ",
"    ..++..  ..@@@@..            ",
"    ..++..  ..@@@@..            ",
"    ..++....##$$$$##..          ",
"    ..++....##$$$$##..          ",
"    ..%%..&&##$$$$##&&..        ",
"    ..%%..&&##$$$$##&&..        ",
"    ..**..&&&&&&&&&&&&..        ",
"    ..**..&&&&&&&&&&&&..        ",
"    ..%%..&&########&&......    ",
"    ..%%..&&########&&......    ",
"    ..%%..##........##..**%%..  ",
"    ..%%..##........##..**%%..  ",
"    ..%%&&&&##....##&&..%%%%..  ",
"    ..%%&&&&##....##&&..%%%%..  ",
"    ..%%&&==##....##==&&%%%%..  ",
"    ..%%&&==##....##==&&%%%%..  ",
"    ..%%==##&&&&&&&&##&&%%%%..  ",
"    ..%%==##&&&&&&&&##&&%%%%..  ",
"    ..**..&&########&&==**%%..  ",
"    ..**..&&########&&==**%%..  ",
"      ....##&&....&&##......    ",
"      ....##&&....&&##......    ",
"          ....    ....          ",
"          ....    ....          ",
"                                ",
"                                "};
