/* XPM */
static char * Meleft1_xpm[] = {
"32 32 11 1",
" 	c #B1D354",
".	c #171717",
"+	c #A953A1",
"@	c #953788",
"#	c #818181",
"$	c #B1B1B1",
"%	c #CBE36F",
"&	c #D3A061",
"*	c #99703B",
"=	c #515151",
"-	c #8ECD65",
"                                ",
"                                ",
"                                ",
"                                ",
"          ..........            ",
"          ..........            ",
"        ..++++++++++..          ",
"        ..++++++++++..          ",
"        ..@@@@@@@@@@++..        ",
"        ..@@@@@@@@@@++..        ",
"        ..@@##$$$$##@@++..      ",
"        ..@@##$$$$##@@++..      ",
"        ..######$$$$##....      ",
"        ..######$$$$##....      ",
"        ..$$$$########..        ",
"        ..$$$$########..        ",
"        ......$$######..        ",
"        ......$$######..        ",
"        ....$$########..%%      ",
"        ....$$########..%%      ",
"      ..&&**$$======..%%  --    ",
"      ..&&**$$======..%%  --    ",
"      ..&&&&==$$##@@++..----    ",
"      ..&&&&==$$##@@++..----    ",
"      ..&&&&$$##==@@++++..      ",
"      ..&&&&$$##==@@++++..      ",
"      ..&&&&..==..@@++++..      ",
"      ..&&&&..==..@@++++..      ",
"      ..&&**..............      ",
"      ..&&**..............      ",
"        ....                    ",
"        ....                    "};
