/* XPM */
static char * Meleftattack_xpm[] = {
"32 32 12 1",
" 	c #B1D354",
".	c #171717",
"+	c #A953A1",
"@	c #953788",
"#	c #818181",
"$	c #B1B1B1",
"%	c #CBE36F",
"&	c #8ECD65",
"*	c #D3A061",
"=	c #99703B",
"-	c #F4F4F4",
";	c #515151",
"                                ",
"                                ",
"              ..........        ",
"              ..........        ",
"            ..++++++++++..      ",
"            ..++++++++++..      ",
"            ..@@@@@@@@@@++..    ",
"            ..@@@@@@@@@@++..    ",
"            ..@@##$$$$##@@++..  ",
"            ..@@##$$$$##@@++..  ",
"        %%%%..######$$$$##....  ",
"        %%%%..######$$$$##....  ",
"        &&%%..$$$$########..    ",
"        &&%%..$$$$########..    ",
"          ........$$######..    ",
"          ........$$######..    ",
"    ......**==..$$########..    ",
"    ......**==..$$########..    ",
"  ..----..****..$$;;;;;;..      ",
"  ..----..****..$$;;;;;;..      ",
"    ......****;;;;$$##@@++..    ",
"    ......****;;;;$$##@@++..    ",
"        ..****$$$$##;;@@++++..  ",
"        ..****$$$$##;;@@++++..  ",
"        ..**==..##;;..@@++++..  ",
"        ..**==..##;;..@@++++..  ",
"          ....  ..$$##........  ",
"          ....  ..$$##........  ",
"                  ....          ",
"                  ....          ",
"                                ",
"                                "};
