/* XPM */
static char * Meright_xpm[] = {
"32 32 12 1",
" 	c #B1D354",
".	c #171717",
"+	c #F4F4F4",
"@	c #A953A1",
"#	c #953788",
"$	c #D3A061",
"%	c #818181",
"&	c #99703B",
"*	c #B1B1B1",
"=	c #CBE36F",
"-	c #8ECD65",
";	c #515151",
"                                ",
"                                ",
"              ..                ",
"              ..                ",
"            ..++......          ",
"            ..++......          ",
"          ....++..@@@@..        ",
"          ....++..@@@@..        ",
"        ..@@..++..####..        ",
"        ..@@..++..####..        ",
"      ..@@##..$$..%%##..        ",
"      ..@@##..$$..%%##..        ",
"      ....%%..&&..%%%%..        ",
"      ....%%..&&..%%%%..        ",
"        ..%%..$$..****..        ",
"        ..%%..$$..****..        ",
"        ..%%..$$........        ",
"        ..%%..$$........        ",
"        ..%%..$$..**....==      ",
"        ..%%..$$..**....==      ",
"          ....$$..**&&$$..--    ",
"          ....$$..**&&$$..--    ",
"        ..@@..$$..;;$$$$..--    ",
"        ..@@..$$..;;$$$$..--    ",
"      ..@@@@..&&..**$$$$..      ",
"      ..@@@@..&&..**$$$$..      ",
"      ..@@@@##..;;%%$$$$..      ",
"      ..@@@@##..;;%%$$$$..      ",
"      ..............&&$$..      ",
"      ..............&&$$..      ",
"                    ....        ",
"                    ....        "};
