/* XPM */
static char * Meupattack_xpm[] = {
"32 32 11 1",
" 	c #B1D354",
".	c #171717",
"+	c #D3A061",
"@	c #818181",
"#	c #A953A1",
"$	c #B1B1B1",
"%	c #953788",
"&	c #99703B",
"*	c #CBE36F",
"=	c #8ECD65",
"-	c #515151",
"                      ..++..    ",
"                      ..++..    ",
"                ......@@++..    ",
"                ......@@++..    ",
"              ..####..@@++..    ",
"              ..####..@@++..    ",
"              ..####....++..    ",
"              ..####....++..    ",
"            ..$$%%%%$$..&&..    ",
"            ..$$%%%%$$..&&..    ",
"        **..@@$$%%%%$$@@....    ",
"        **..@@$$%%%%$$@@....    ",
"        ==..@@@@$$$$@@@@....    ",
"        ==..@@@@$$$$@@@@....    ",
"          ..@@@@@@@@@@@@--..    ",
"          ..@@@@@@@@@@@@--..    ",
"      ......@@@@@@@@@@@@..      ",
"      ......@@@@@@@@@@@@..      ",
"    ..++&&..------------..      ",
"    ..++&&..------------..      ",
"    ..++++@@%%########%%..==    ",
"    ..++++@@%%########%%..==    ",
"    ..++++%%############..==    ",
"    ..++++%%############..==    ",
"    ..++++%%############..      ",
"    ..++++%%############..      ",
"    ..++&&%%############..      ",
"    ..++&&%%############..      ",
"      ..................        ",
"      ..................        ",
"                                ",
"                                "};
