/* XPM */
static char * Meleft_xpm[] = {
"32 32 10 1",
" 	c #B1D354",
".	c #171717",
"+	c #A953A1",
"@	c #F4F4F4",
"#	c #B1B1B1",
"$	c #953788",
"%	c #818181",
"&	c #D3A061",
"*	c #99703B",
"=	c #515151",
"                                ",
"                                ",
"              ....      ..      ",
"              ....      ..      ",
"            ..++++..  ..@@..    ",
"            ..++++..  ..@@..    ",
"            ..++++..  ..@@..    ",
"            ..++++..  ..@@..    ",
"          ..##$$$$##....@@..    ",
"          ..##$$$$##....@@..    ",
"        ..%%##$$$$##%%..&&..    ",
"        ..%%##$$$$##%%..&&..    ",
"        ..%%%%####%%%%..&&..    ",
"        ..%%%%####%%%%..&&..    ",
"        ..%%%%%%%%%%%%..&&..    ",
"        ..%%%%%%%%%%%%..&&..    ",
"    ......%%%%%%%%%%%%..&&..    ",
"    ......%%%%%%%%%%%%..&&..    ",
"  ..&&**..============..&&..    ",
"  ..&&**..============..&&..    ",
"  ..&&&&%%$$++++++++$$%%&&..    ",
"  ..&&&&%%$$++++++++$$%%&&..    ",
"  ..&&&&$$++++++++++++$$&&..    ",
"  ..&&&&$$++++++++++++$$&&..    ",
"  ..&&&&$$++++++++++++$$**..    ",
"  ..&&&&$$++++++++++++$$**..    ",
"  ..&&**$$++++++++++++$$..      ",
"  ..&&**$$++++++++++++$$..      ",
"    ....................        ",
"    ....................        ",
"                                ",
"                                "};
