/* XPM */
static char *result[] = {
/* columns rows colors chars-per-pixel */
"32 32 13 1 ",
"  c gray9",
". c #A43434",
"X c #BC4E4E",
"o c #93674D",
"O c #5D9C56",
"+ c #D3A061",
"@ c #B1D354",
"# c #8ECD65",
"$ c #96E06D",
"% c #CBCBCB",
"& c #CECECE",
"* c gray87",
"= c #F4F4F4",
/* pixels */
"@@@@@@@@@@@@@@@@@@@@@@@@@@@@@@@@",
"@@@@@@@@@@@@@@@@@@@@@@@@@@@@@@@@",
"@@@@@@@@  @@        @@  @@@@@@@@",
"@@@@@@@@  @@        @@  @@@@@@@@",
"@@@@@@  ==  XXXXXXXX  ==  @@@@@@",
"@@@@@@  ==  XXXXXXXX  ==  @@@@@@",
"@@@@@@  &&&&..XXXX..&&&&  @@@@@@",
"@@@@@@  &&&&..XXXX..&&&&  @@@@@@",
"@@  @@@@  &&&&====&&&&  @@@@@@@@",
"@@  @@@@  &&&&====&&&&  @@@@@@@@",
"  ++    OO..&&&&&&&&..OO  @@@@@@",
"  ++    OO..&&&&&&&&..OO  @@@@@@",
"  oo  @@  XX  &&&&  XX  @@@@@@@@",
"  oo  @@  XX  &&&&  XX  @@@@@@@@",
"  oo++    XX==&&&&==XX  @@@@@@@@",
"  oo++    XX==&&&&==XX  @@@@@@@@",
"@@  oo++XX%%$$$$$$$$%%XX  @@@@@@",
"@@  oo++XX%%$$$$$$$$%%XX  @@@@@@",
"@@  ooooXX**OOOOOOOO**XX  @@@@@@",
"@@  ooooXX**OOOOOOOO**XX  @@@@@@",
"@@@@  ooXXXX%%****%%XXXX  ##@@@@",
"@@@@  ooXXXX%%****%%XXXX  ##@@@@",
"@@@@  oo....XX****XX....  ##@@@@",
"@@@@  oo....XX****XX....  ##@@@@",
"@@@@  oo  XXXXXXXXXXXX  @@@@@@@@",
"@@@@  oo  XXXXXXXXXXXX  @@@@@@@@",
"@@@@@@  @@            @@@@@@@@@@",
"@@@@@@  @@            @@@@@@@@@@",
"@@@@@@@@@@@@@@@@@@@@@@@@@@@@@@@@",
"@@@@@@@@@@@@@@@@@@@@@@@@@@@@@@@@",
"@@@@@@@@@@@@@@@@@@@@@@@@@@@@@@@@",
"@@@@@@@@@@@@@@@@@@@@@@@@@@@@@@@@"
};
