/* XPM */
static char * Orc5_xpm[] = {
"32 32 9 1",
" 	c #B1D354",
".	c #171717",
"+	c #96E06D",
"@	c #BC4E4E",
"#	c #CBE36F",
"$	c #A43434",
"%	c #5D9C56",
"&	c #76CA6D",
"*	c #F4F4F4",
"                                ",
"                                ",
"                                ",
"                                ",
"                                ",
"                                ",
"            ........            ",
"            ........            ",
"          ..++@@@@++..          ",
"          ..++@@@@++..          ",
"        ..++##$$$$##++..        ",
"        ..++##$$$$##++..        ",
"        ..++++$$$$++++..        ",
"        ..++++$$$$++++..        ",
"      ..%%&&++++++++&&%%..      ",
"      ..%%&&++++++++&&%%..      ",
"      ....%%..%%%%..%%....      ",
"      ....%%..%%%%..%%....      ",
"    ..####&&&&&&&&&&&&####..    ",
"    ..####&&&&&&&&&&&&####..    ",
"    ..##++++**....**++++##..    ",
"    ..##++++**....**++++##..    ",
"    ..++++%%++++++++%%++++..    ",
"    ..++++%%++++++++%%++++..    ",
"      ..++++..@@@@..++++..      ",
"      ..++++..@@@@..++++..      ",
"      ..++&&..@@@@..&&++..      ",
"      ..++&&..@@@@..&&++..      ",
"        ................        ",
"        ................        ",
"                                ",
"                                "};
