/* XPM */
static char * Portal2_xpm[] = {
"32 32 9 1",
" 	c #373737",
".	c #BBBDC0",
"+	c #D7DADE",
"@	c #989898",
"#	c #717171",
"$	c #B1D354",
"%	c #B79764",
"&	c #E7B577",
"*	c #FFDE9D",
"                                ",
"                                ",
"  ............................  ",
"  ............................  ",
"  ............................  ",
"  ............................  ",
"  ............................  ",
"  ............................  ",
"  ............................  ",
"  ............................  ",
"  ++++++++++++++++++++++++++++  ",
"  ++++++++++++++++++++++++++++  ",
"  @@@@@@@@@@@@@@@@@@@@@@@@@@@@  ",
"  @@@@@@@@@@@@@@@@@@@@@@@@@@@@  ",
"  @@@@@@@@@@@@@@@@@@@@@@@@@@@@  ",
"  @@@@@@@@@@@@@@@@@@@@@@@@@@@@  ",
"    ####                ####    ",
"    ####                ####    ",
"$$  @@@@  %%&&****&&%%  @@@@  $$",
"$$  @@@@  %%&&****&&%%  @@@@  $$",
"$$  @@@@  &&********&&  @@@@  $$",
"$$  @@@@  &&********&&  @@@@  $$",
"$$  @@@@  ****&&&&****  @@@@  $$",
"$$  @@@@  ****&&&&****  @@@@  $$",
"$$  @@@@  ****&&&&****  @@@@  $$",
"$$  @@@@  ****&&&&****  @@@@  $$",
"$$  @@@@  &&********&&  @@@@  $$",
"$$  @@@@  &&********&&  @@@@  $$",
"$$  @@@@  %%&&****&&%%  @@@@  $$",
"$$  @@@@  %%&&****&&%%  @@@@  $$",
"$$$$$$$$$$$$$$$$$$$$$$$$$$$$$$$$",
"$$$$$$$$$$$$$$$$$$$$$$$$$$$$$$$$"};
