/* XPM */
static char * Portal3_xpm[] = {
"32 32 9 1",
" 	c #373737",
".	c #BBBDC0",
"+	c #D7DADE",
"@	c #989898",
"#	c #717171",
"$	c #B1D354",
"%	c #42ACAF",
"&	c #44D3D0",
"*	c #73FFFB",
"                                ",
"                                ",
"  ............................  ",
"  ............................  ",
"  ............................  ",
"  ............................  ",
"  ............................  ",
"  ............................  ",
"  ............................  ",
"  ............................  ",
"  ++++++++++++++++++++++++++++  ",
"  ++++++++++++++++++++++++++++  ",
"  @@@@@@@@@@@@@@@@@@@@@@@@@@@@  ",
"  @@@@@@@@@@@@@@@@@@@@@@@@@@@@  ",
"  @@@@@@@@@@@@@@@@@@@@@@@@@@@@  ",
"  @@@@@@@@@@@@@@@@@@@@@@@@@@@@  ",
"    ####                ####    ",
"    ####                ####    ",
"$$  @@@@  %%&&****&&%%  @@@@  $$",
"$$  @@@@  %%&&****&&%%  @@@@  $$",
"$$  @@@@  &&********&&  @@@@  $$",
"$$  @@@@  &&********&&  @@@@  $$",
"$$  @@@@  ****&&&&****  @@@@  $$",
"$$  @@@@  ****&&&&****  @@@@  $$",
"$$  @@@@  ****&&&&****  @@@@  $$",
"$$  @@@@  ****&&&&****  @@@@  $$",
"$$  @@@@  &&********&&  @@@@  $$",
"$$  @@@@  &&********&&  @@@@  $$",
"$$  @@@@  %%&&****&&%%  @@@@  $$",
"$$  @@@@  %%&&****&&%%  @@@@  $$",
"$$$$$$$$$$$$$$$$$$$$$$$$$$$$$$$$",
"$$$$$$$$$$$$$$$$$$$$$$$$$$$$$$$$"};
