/* XPM */
static char *result[] = {
/* columns rows colors chars-per-pixel */
"32 32 9 1 ",
"  c #373737",
". c #717171",
"X c #B1D354",
"o c #AE69F0",
"O c #989898",
"+ c #BBBDC0",
"@ c #C58DFF",
"# c #F1B6FF",
"$ c #D7DADE",
/* pixels */
"                                ",
"                                ",
"  ++++++++++++++++++++++++++++  ",
"  ++++++++++++++++++++++++++++  ",
"  ++++++++++++++++++++++++++++  ",
"  ++++++++++++++++++++++++++++  ",
"  ++++++++++++++++++++++++++++  ",
"  ++++++++++++++++++++++++++++  ",
"  ++++++++++++++++++++++++++++  ",
"  ++++++++++++++++++++++++++++  ",
"  $$$$$$$$$$$$$$$$$$$$$$$$$$$$  ",
"  $$$$$$$$$$$$$$$$$$$$$$$$$$$$  ",
"  OOOOOOOOOOOOOOOOOOOOOOOOOOOO  ",
"  OOOOOOOOOOOOOOOOOOOOOOOOOOOO  ",
"  OOOOOOOOOOOOOOOOOOOOOOOOOOOO  ",
"  OOOOOOOOOOOOOOOOOOOOOOOOOOOO  ",
"    ....                ....    ",
"    ....                ....    ",
"XX  OOOO  oo@@####@@oo  OOOO  XX",
"XX  OOOO  oo@@####@@oo  OOOO  XX",
"XX  OOOO  @@########@@  OOOO  XX",
"XX  OOOO  @@########@@  OOOO  XX",
"XX  OOOO  ####@@@@####  OOOO  XX",
"XX  OOOO  ####@@@@####  OOOO  XX",
"XX  OOOO  ####@@@@####  OOOO  XX",
"XX  OOOO  ####@@@@####  OOOO  XX",
"XX  OOOO  @@########@@  OOOO  XX",
"XX  OOOO  @@########@@  OOOO  XX",
"XX  OOOO  oo@@####@@oo  OOOO  XX",
"XX  OOOO  oo@@####@@oo  OOOO  XX",
"XXXXXXXXXXXXXXXXXXXXXXXXXXXXXXXX",
"XXXXXXXXXXXXXXXXXXXXXXXXXXXXXXXX"
};
