/* XPM */
static char * Portal1_xpm[] = {
"32 32 9 1",
" 	c #373737",
".	c #BBBDC0",
"+	c #D7DADE",
"@	c #989898",
"#	c #717171",
"$	c #B1D354",
"%	c #82A66E",
"&	c #A4CA7E",
"*	c #CDF5A4",
"                                ",
"                                ",
"  ............................  ",
"  ............................  ",
"  ............................  ",
"  ............................  ",
"  ............................  ",
"  ............................  ",
"  ............................  ",
"  ............................  ",
"  ++++++++++++++++++++++++++++  ",
"  ++++++++++++++++++++++++++++  ",
"  @@@@@@@@@@@@@@@@@@@@@@@@@@@@  ",
"  @@@@@@@@@@@@@@@@@@@@@@@@@@@@  ",
"  @@@@@@@@@@@@@@@@@@@@@@@@@@@@  ",
"  @@@@@@@@@@@@@@@@@@@@@@@@@@@@  ",
"    ####                ####    ",
"    ####                ####    ",
"$$  @@@@  %%&&****&&%%  @@@@  $$",
"$$  @@@@  %%&&****&&%%  @@@@  $$",
"$$  @@@@  &&********&&  @@@@  $$",
"$$  @@@@  &&********&&  @@@@  $$",
"$$  @@@@  ****&&&&****  @@@@  $$",
"$$  @@@@  ****&&&&****  @@@@  $$",
"$$  @@@@  ****&&&&****  @@@@  $$",
"$$  @@@@  ****&&&&****  @@@@  $$",
"$$  @@@@  &&********&&  @@@@  $$",
"$$  @@@@  &&********&&  @@@@  $$",
"$$  @@@@  %%&&****&&%%  @@@@  $$",
"$$  @@@@  %%&&****&&%%  @@@@  $$",
"$$$$$$$$$$$$$$$$$$$$$$$$$$$$$$$$",
"$$$$$$$$$$$$$$$$$$$$$$$$$$$$$$$$"};
