/* XPM */
static char * RIP_xpm[] = {
"32 32 8 1",
" 	c #B1D354",
".	c #373737",
"+	c #D6D8DA",
"@	c #989898",
"#	c #BDBFC2",
"$	c #B4B5B8",
"%	c #717171",
"&	c #8ECD65",
"                                ",
"                                ",
"              ....              ",
"              ....              ",
"          ....++++....          ",
"          ....++++....          ",
"          ..++@@@@++..          ",
"          ..++@@@@++..          ",
"          ..@@@@@@@@..          ",
"          ..@@@@@@@@..          ",
"        ..##++@@@@++##..        ",
"        ..##++@@@@++##..        ",
"      ..$$++++@@@@++++$$..      ",
"      ..$$++++@@@@++++$$..      ",
"      ..$$##++++++++##$$..      ",
"      ..$$##++++++++##$$..      ",
"      ..$$@@@@@@@@@@@@$$..      ",
"      ..$$@@@@@@@@@@@@$$..      ",
"      ..@@%%%%%%%%%%%%@@..      ",
"      ..@@%%%%%%%%%%%%@@..      ",
"      ..@@@@@@@@@@@@@@@@..&&    ",
"      ..@@@@@@@@@@@@@@@@..&&    ",
"      ..@@%%%%%%%%%%%%@@..&&    ",
"      ..@@%%%%%%%%%%%%@@..&&    ",
"      ..@@@@@@@@@@@@@@@@..      ",
"      ..@@@@@@@@@@@@@@@@..      ",
"      ..%%@@@@@@@@@@@@%%..      ",
"      ..%%@@@@@@@@@@@@%%..      ",
"                                ",
"                                ",
"                                ",
"                                "};
