/* XPM */
static char * Slime6_xpm[] = {
"32 32 8 1",
" 	c #B1D354",
".	c #CBE36F",
"+	c #171717",
"@	c #349AA4",
"#	c #8AE0D2",
"$	c #4EBCB9",
"%	c #000000",
"&	c #207D86",
"                                ",
"                                ",
"                                ",
"                                ",
"                                ",
"                                ",
"                                ",
"                                ",
"                                ",
"                                ",
"        ..++++++++++++..        ",
"        ..++++++++++++..        ",
"        ++@@########@@++        ",
"        ++@@########@@++        ",
"      ++$$############$$++      ",
"      ++$$############$$++      ",
"      ++$$############$$++      ",
"      ++$$############$$++      ",
"      ++@@$$########$$@@++      ",
"      ++@@$$########$$@@++      ",
"    %%@@@@++$$$$$$$$++@@@@%%    ",
"    %%@@@@++$$$$$$$$++@@@@%%    ",
"    %%@@&&&&&&&&&&&&&&&&@@%%    ",
"    %%@@&&&&&&&&&&&&&&&&@@%%    ",
"                                ",
"                                ",
"                                ",
"                                ",
"                                ",
"                                ",
"                                ",
"                                "};
