/* XPM */
static char * Slime1_xpm[] = {
"32 32 7 1",
" 	c #B1D354",
".	c #171717",
"+	c #349AA4",
"@	c #8AE0D2",
"#	c #4EBCB9",
"$	c #207D86",
"%	c #8ECD65",
"                                ",
"                                ",
"                                ",
"                                ",
"                                ",
"                                ",
"                                ",
"                                ",
"          ............          ",
"          ............          ",
"        ..++@@@@@@@@++..        ",
"        ..++@@@@@@@@++..        ",
"      ..##@@@@@@@@@@@@##..      ",
"      ..##@@@@@@@@@@@@##..      ",
"      ..##@@@@@@@@@@@@##..      ",
"      ..##@@@@@@@@@@@@##..      ",
"      ..++##@@@@@@@@##++..      ",
"      ..++##@@@@@@@@##++..      ",
"      ..++..########..++..      ",
"      ..++..########..++..      ",
"      ..++$$$$$$$$$$$$++..%%    ",
"      ..++$$$$$$$$$$$$++..%%    ",
"      ..++$$$$$$$$$$$$++..%%    ",
"      ..++$$$$$$$$$$$$++..%%    ",
"                                ",
"                                ",
"                                ",
"                                ",
"                                ",
"                                ",
"                                ",
"                                "};
