/* XPM */
static char * Slime3_xpm[] = {
"32 32 8 1",
" 	c #B1D354",
".	c #171717",
"+	c #349AA4",
"@	c #8AE0D2",
"#	c #4EBCB9",
"$	c #207D86",
"%	c #CBE36F",
"&	c #8ECD65",
"                                ",
"                                ",
"          ............          ",
"          ............          ",
"        ..++@@@@@@@@++..        ",
"        ..++@@@@@@@@++..        ",
"      ..##@@@@@@@@@@@@##..      ",
"      ..##@@@@@@@@@@@@##..      ",
"      ..##@@@@@@@@@@@@##..      ",
"      ..##@@@@@@@@@@@@##..      ",
"      ..++..##@@@@##..++..      ",
"      ..++..##@@@@##..++..      ",
"      ..++..########..++..      ",
"      ..++..########..++..      ",
"      ..++$$$$$$$$$$$$++..      ",
"      ..++$$$$$$$$$$$$++..      ",
"      ..++$$$$$$$$$$$$++..      ",
"      ..++$$$$$$$$$$$$++..      ",
"      ..++$$$$$$$$$$$$++..      ",
"      ..++$$$$$$$$$$$$++..      ",
"                    %%%%  &&    ",
"                    %%%%  &&    ",
"                      %%&&&&    ",
"                      %%&&&&    ",
"                                ",
"                                ",
"                                ",
"                                ",
"                                ",
"                                ",
"                                ",
"                                "};
