/* XPM */
static char *_98372f900d548519357c0ead0a096c0Zr05CocP0cWIVBQc[] = {
/* columns rows colors chars-per-pixel */
"32 32 7 1 ",
"  c None",
". c gray9",
"X c #64534B",
"o c #886D58",
"O c #69CA97",
"+ c #7FE19B",
"@ c #B1E898",
/* pixels */
"              ....              ",
"              ....              ",
"            ..@@@@..            ",
"            ..@@@@..            ",
"          ..@@@@@@@@..          ",
"          ..@@@@@@@@..          ",
"          ..@@@@@@@@..          ",
"          ..@@@@@@@@..          ",
"        ..@@@@@@@@@@@@..        ",
"        ..@@@@@@@@@@@@..        ",
"      ..@@@@@@@@@@@@@@@@..      ",
"      ..@@@@@@@@@@@@@@@@..      ",
"        ..@@++@@@@++@@..        ",
"        ..@@++@@@@++@@..        ",
"      ..++++++++++++++++..      ",
"      ..++++++++++++++++..      ",
"    ..++++++++++++++++++++..    ",
"    ..++++++++++++++++++++..    ",
"  ..OOOO++OO++++++OO++++OOOO..  ",
"  ..OOOO++OO++++++OO++++OOOO..  ",
"  ..OOOOOOOOOOOOOOOOOOOOOOOO..  ",
"  ..OOOOOOOOOOOOOOOOOOOOOOOO..  ",
"    ..OOXXOOOOXXOOOOOOXXOO..    ",
"    ..OOXXOOOOXXOOOOOOXXOO..    ",
"      ......XXXXXXXX......      ",
"      ......XXXXXXXX......      ",
"          ..oooooooo..          ",
"          ..oooooooo..          ",
"          ..oooooooo..          ",
"          ..oooooooo..          ",
"                                ",
"                                "
};
