/* XPM */
static char *result[] = {
/* columns rows colors chars-per-pixel */
"32 32 6 1 ",
"  c gray9",
". c #207D86",
"X c #349AA4",
"o c #4EBCB9",
"O c #8AE0D2",
"+ c None",
/* pixels */
"++++++++++++++++++++++++++++++++",
"++++++++++++++++++++++++++++++++",
"++++++++++++++++++++++++++++++++",
"++++++++++++++++++++++++++++++++",
"++++++++++++++++++++++++++++++++",
"++++++++++++++++++++++++++++++++",
"++++++++++++++++++++++++++++++++",
"++++++++++++++++++++++++++++++++",
"++++++++++            ++++++++++",
"++++++++++            ++++++++++",
"++++++++  XXOOOOOOOOXX  ++++++++",
"++++++++  XXOOOOOOOOXX  ++++++++",
"++++++  ooOOOOOOOOOOOOoo  ++++++",
"++++++  ooOOOOOOOOOOOOoo  ++++++",
"++++++  ooOOOOOOOOOOOOoo  ++++++",
"++++++  ooOOOOOOOOOOOOoo  ++++++",
"++++++  XXooOOOOOOOOooXX  ++++++",
"++++++  XXooOOOOOOOOooXX  ++++++",
"++++++  XX  oooooooo  XX  ++++++",
"++++++  XX  oooooooo  XX  ++++++",
"++++++  XX............XX  ++++++",
"++++++  XX............XX  ++++++",
"++++++  XX............XX  ++++++",
"++++++  XX............XX  ++++++",
"++++++++++++++++++++++++++++++++",
"++++++++++++++++++++++++++++++++",
"++++++++++++++++++++++++++++++++",
"++++++++++++++++++++++++++++++++",
"++++++++++++++++++++++++++++++++",
"++++++++++++++++++++++++++++++++",
"++++++++++++++++++++++++++++++++",
"++++++++++++++++++++++++++++++++"
};
