/* XPM */
static char *result[] = {
/* columns rows colors chars-per-pixel */
"32 32 7 1 ",
"  c gray9",
". c #B1D354",
"X c #8ECD65",
"o c #207D86",
"O c #349AA4",
"+ c #4EBCB9",
"@ c #8AE0D2",
/* pixels */
"................................",
"................................",
"................................",
"................................",
"................................",
"................................",
"................................",
"................................",
"..........            ..........",
"..........            ..........",
"........  OO@@@@@@@@OO  ........",
"........  OO@@@@@@@@OO  ........",
"......  ++@@@@@@@@@@@@++  ......",
"......  ++@@@@@@@@@@@@++  ......",
"......  ++@@@@@@@@@@@@++  ......",
"......  ++@@@@@@@@@@@@++  ......",
"......  OO++@@@@@@@@++OO  ......",
"......  OO++@@@@@@@@++OO  ......",
"......  OO  ++++++++  OO  ......",
"......  OO  ++++++++  OO  ......",
"......  OOooooooooooooOO  XX....",
"......  OOooooooooooooOO  XX....",
"......  OOooooooooooooOO  XX....",
"......  OOooooooooooooOO  XX....",
"................................",
"................................",
"................................",
"................................",
"................................",
"................................",
"................................",
"................................"
};
